<svg xmlns="http://www.w3.org/2000/svg" width="24" height="24" viewBox="0 0 24 24">
    <g fill="none" fill-rule="evenodd">
        <path d="M0 0H23.878V23.878H0z"/>
        <path fill="#E5F4E5" d="M4.848 0L0.107 0 0 0.107 0 4.848z"/>
        <path fill="#FD8F67" d="M4.873 0L0 4.873 0 9.589 9.588 0z"/>
        <path fill="#E5F4E5" d="M9.614 0L0 9.614 0 14.355 14.355 0z"/>
        <path fill="#FD8F67" d="M19.112 0L14.372 0 0 14.372 0 19.113z"/>
        <path fill="#E5F4E5" d="M23.834 0L19.138 0 0 19.138 0 23.834 0.019 23.834 23.834 0.019z"/>
        <path fill="#FD8F67" d="M23.834 0.045L0.045 23.834 4.786 23.834 23.834 4.785z"/>
        <path fill="#E5F4E5" d="M23.834 9.544L23.834 4.803 4.803 23.834 9.543 23.834z"/>
        <path fill="#FD8F67" d="M23.834 9.569L9.569 23.834 14.284 23.834 23.834 14.285z"/>
        <path fill="#E5F4E5" d="M23.834 14.31L14.31 23.834 19.051 23.834 23.834 19.051z"/>
        <path fill="#FD8F67" d="M23.834 19.068L19.068 23.834 23.834 23.834z"/>
    </g>
</svg>
