<svg xmlns="http://www.w3.org/2000/svg" width="23" height="23" viewBox="0 0 23 23">
    <g fill="none" fill-rule="evenodd">
        <path d="M0 0L23 0 23 22.361 0 22.361z" transform="translate(0 .293)"/>
        <path fill="#E5F4E5" fill-rule="nonzero" d="M11.5.932c-4.226 0-7.667 3.345-7.667 7.453 0 5.19 6.67 12.43 6.958 12.737l.709.764.71-.764c.287-.308 6.957-7.547 6.957-12.737 0-4.108-3.44-7.453-7.667-7.453zm0 18.14C9.41 16.64 5.75 11.684 5.75 8.385c0-3.084 2.578-5.59 5.75-5.59s5.75 2.506 5.75 5.59c0 3.569-4.073 8.721-5.75 10.687z" transform="translate(0 .293)"/>
    </g>
</svg>
