<?xml version="1.0" encoding="UTF-8"?>
<svg width="136px" height="36px" viewBox="0 0 136 36" version="1.1" xmlns="http://www.w3.org/2000/svg" xmlns:xlink="http://www.w3.org/1999/xlink">
  <!-- Generator: Sketch 55.1 (78136) - https://sketchapp.com -->
  <title>Group 17</title>
  <desc>Created with Sketch.</desc>
  <g id="Grid" stroke="none" stroke-width="1" fill="none" fill-rule="evenodd">
    <g transform="translate(-64.000000, -64.000000)" fill="#ff510b" id="nav-bar">
      <g>
        <g id="Group-17" transform="translate(64.000000, 64.000000)">
          <path d="M133.503206,11.5469305 C133.503206,11.152012 133.234287,10.9937974 132.911614,10.9937974 L132.337118,10.9937974 L132.337118,12.0914112 L132.911614,12.0914112 C133.234287,12.0914112 133.503206,11.9331966 133.503206,11.5469305 M133.337018,12.5648189 L134.038735,13.6463639 L133.400629,13.6463639 L132.787012,12.6284755 L132.337118,12.6284755 L132.337118,13.6463639 L131.794196,13.6463639 L131.794196,10.456733 L132.911614,10.456733 C133.557113,10.456733 134.038735,10.8516515 134.038735,11.5469305 C134.038735,12.075497 133.755184,12.4311708 133.337018,12.5648189 M135.319877,12.0988275 C135.319877,10.7180034 134.202459,9.59705923 132.826133,9.59705923 C131.449499,9.59705923 130.332235,10.7180034 130.332235,12.0988275 C130.332235,13.4881494 131.449499,14.6016773 132.826133,14.6016773 C134.202459,14.6016773 135.319877,13.4881494 135.319877,12.0988275 M135.862491,12.0988275 C135.862491,13.7812481 134.500796,15.1388961 132.826133,15.1388961 C131.156244,15.1388961 129.804099,13.7812481 129.804099,12.0988275 C129.804099,10.4174884 131.156244,9.05999485 132.826133,9.05999485 C134.500796,9.05999485 135.862491,10.4174884 135.862491,12.0988275" id="Fill-1"></path>
          <path d="M1.54020385e-05,18.60103 C1.54020385e-05,13.1475708 3.83512299,9.11402575 9.16022378,9.11402575 C11.5430732,9.11402575 13.5535012,9.71134764 14.9312136,10.4586953 L13.5535012,16.6590386 L12.5107832,16.6590386 C11.8033676,15.3516052 11.0217142,13.2969785 10.2397527,11.7285837 C9.8297504,10.7570472 9.08567792,10.4213047 8.37764621,10.4213047 C6.18131552,10.4213047 4.7290573,12.9612361 4.7290573,16.4722403 C4.7290573,21.0661803 7.18645255,24.203588 11.1704978,24.203588 C12.3248806,24.203588 13.6280471,23.8672275 14.4098546,23.2699056 L14.9312136,24.0167897 C13.6280471,26.1460429 11.617619,27.2666781 8.67552163,27.2666781 C3.01650464,27.2666781 1.54020385e-05,23.3819227 1.54020385e-05,18.60103" id="Fill-3"></path>
          <path d="M30.084386,18.675873 C30.084386,13.6332464 28.5575819,10.2344137 26.1001866,10.2344137 C23.9030858,10.2344137 22.6375003,12.9237528 22.6375003,17.7048 C22.6375003,22.7841991 24.2011153,26.1461047 26.6216997,26.1461047 C28.8178763,26.1461047 30.084386,23.4566112 30.084386,18.675873 M17.5358831,18.2647313 C17.5358831,13.4838386 20.3290428,9.11393305 26.435027,9.11393305 C32.3551085,9.11393305 35.2217359,12.9611433 35.2217359,18.0405425 C35.2217359,22.9709974 32.3926895,27.2667399 26.3604811,27.2667399 C20.254651,27.2667399 17.5358831,23.1951863 17.5358831,18.2647313" id="Fill-5"></path>
          <path d="M51.4538057,9.97289614 L50.0760933,16.5468361 L48.8095837,16.5468361 C48.4748974,15.2769476 48.1023221,13.9322781 47.7299008,12.8117974 C47.4696063,11.9896687 46.7991556,11.7659433 46.129629,12.1766215 C45.6449268,12.4382009 45.0122111,12.9612052 44.3049495,13.5586815 C44.2672145,16.882733 44.2672145,20.5432996 44.3049495,24.166321 C44.3049495,24.9509047 44.5650899,25.3988189 45.3470514,25.5482266 L47.3206686,25.8845871 L47.3206686,26.8556601 L37.4909336,26.8556601 L37.4909336,25.8845871 L38.3847139,25.6977888 C39.0919755,25.4736 39.390005,25.0630764 39.390005,24.2781837 C39.4268159,20.4311279 39.4268159,16.6216172 39.390005,12.7744069 C39.390005,11.9896687 39.0919755,11.5417545 38.3103221,11.3923468 L37.1560933,11.2801751 L37.1185123,10.2718661 C39.0543946,9.93550558 40.9912009,9.56190901 43.0384399,9.11399485 L43.8202473,9.11399485 L44.1926686,12.1766215 C44.5650899,11.8407245 44.9752462,11.5043639 45.3846324,11.2055485 C47.0971851,9.7487073 48.3258057,9.07660429 49.5177694,9.07660429 C50.4109336,9.07660429 51.0812304,9.4128103 51.4538057,9.97289614" id="Fill-7"></path>
          <path d="M62.3615755,25.0255777 C63.2555099,25.0255777 64.0371633,24.6145906 64.8189708,23.942024 C64.8565518,21.2157579 64.8565518,18.0780412 64.8565518,14.8284618 C64.707614,11.8780069 63.2555099,10.2717579 61.6918949,10.2717579 C59.6437318,10.2717579 58.1916276,12.5501099 58.1916276,16.6590541 C58.1916276,21.3653202 59.569186,25.0255777 62.3615755,25.0255777 L62.3615755,25.0255777 Z M71.8932811,25.249303 L71.8932811,26.2208395 C70.4787579,26.4447193 68.2071112,26.8183159 66.4945586,27.1919124 L65.8986537,27.1545219 L65.1545812,25.0255777 C63.8514147,26.1834489 62.0643162,27.3039296 59.9040263,27.3039296 C55.6595325,27.3039296 52.9042618,23.7182987 52.9042618,18.7878438 C52.9042618,12.8116893 56.6649776,9.07649614 61.8408326,9.07649614 C62.9574804,9.07649614 63.9627715,9.30083948 64.8189708,9.67397253 C64.8189708,7.73182661 64.8189708,5.78983519 64.7821599,3.88461631 C64.7821599,3.2125133 64.5954872,2.76413562 63.8136797,2.6147279 C63.18081,2.50255622 62.5849051,2.42792961 61.9155325,2.31622146 L61.9155325,1.34468498 C64.1117092,0.971551931 66.7180421,0.448393133 68.9521078,1.54506438e-05 L69.8460421,1.54506438e-05 C69.8460421,4.78090815 69.8083071,16.6958266 69.8460421,23.7555348 C69.8460421,24.6145906 70.2552743,24.9509511 70.9625359,25.0998953 L71.8932811,25.249303 Z" id="Fill-9"></path>
          <path d="M80.7897296,25.2493339 C81.7204747,25.2493339 82.6888009,24.7266386 83.8054487,23.7929562 L83.8054487,17.3310335 C83.0613762,17.5178318 82.2787986,17.8169562 81.4969912,18.1153082 C79.3750523,18.9748275 78.5556639,20.69263 78.5556639,22.3362695 C78.5556639,24.0542266 79.2630795,25.2493339 80.7897296,25.2493339 L80.7897296,25.2493339 Z M90.7684023,25.2493339 L90.7684023,26.2208704 C89.0560036,26.5193768 87.30587,26.8181923 85.4810365,27.1917888 L84.8484747,27.1545528 L84.0665133,24.7640292 C81.9071475,26.2576429 80.082468,27.2667245 77.959759,27.2667245 C75.2788802,27.2667245 73.4919357,25.6229305 73.4919357,23.1577803 C73.4919357,20.6552395 75.1675234,19.0863811 78.1832426,18.040527 C79.1139878,17.7047845 81.8326016,16.8828103 83.7686378,16.3227245 L83.7686378,15.1274627 C83.7686378,11.7658661 82.6512199,10.3091794 81.087759,10.3091794 C79.9703411,10.3091794 79.1139878,10.9438918 78.2209776,12.8491107 C77.6249187,14.006982 77.3270433,14.8284927 76.8056843,16.1359262 L75.8381282,16.1359262 L74.1248054,12.1017631 C76.7309844,10.3091794 79.5241441,9.1139176 82.2787986,9.1139176 C85.7792199,9.1139176 88.7202392,10.5333682 88.6834283,14.6416944 C88.6834283,17.5178318 88.6834283,21.1782438 88.7202392,23.7183296 C88.7202392,24.6146215 89.1303955,24.9508275 89.8376571,25.0999262 L90.7684023,25.2493339 Z" id="Fill-11"></path>
          <path d="M103.537663,15.5011056 C103.537663,12.0271828 102.085404,10.2718352 100.111787,10.2718352 C98.2502967,10.2718352 97.0592571,11.8780841 97.0592571,14.9779468 C97.0592571,18.41417 98.4737803,20.2819983 100.484362,20.2819983 C102.308888,20.2819983 103.537663,18.6009682 103.537663,15.5011056 M100.782238,27.9013288 L96.0163851,27.9013288 C95.494872,28.76023 94.973513,29.6569854 94.4151891,30.5906678 C96.5378981,32.047509 100.447552,33.0559725 103.723411,33.0559725 C106.367633,33.0559725 107.782156,32.0848996 107.782156,30.3292429 C107.782156,28.6114403 105.84612,27.9013288 100.782238,27.9013288 M106.665663,11.467097 C107.558519,12.5127966 108.00564,13.8574661 108.00564,15.3516979 C108.00564,18.6759039 105.026732,21.402479 100.223914,21.402479 C99.2555878,21.402479 98.3993884,21.2904618 97.579846,21.1410541 L95.7560906,23.755612 C97.8778754,23.718376 99.7393658,23.718376 102.011012,23.718376 C107.856548,23.718376 109.755773,25.3240069 109.755773,28.2750798 C109.755773,32.5328137 105.920666,35.9316464 100.260879,35.9316464 C96.5378981,35.9316464 92.9262741,34.8859468 91.0647837,33.0559725 C92.3302152,31.3375519 93.6703465,29.5451227 94.8245753,27.9387193 L94.3039864,27.9387193 C93.8938301,26.743612 93.4476331,25.3613974 93.0374768,24.1662901 C94.3406433,23.0456549 95.494872,21.9251742 96.6491008,20.8794747 C93.8938301,19.9084017 92.5159638,17.8168481 92.5538528,15.2021356 C92.5538528,11.8406936 95.532607,9.11396395 100.335271,9.11396395 C102.643728,9.11396395 104.430827,9.63665923 105.697182,10.5706506 C106.925803,9.86084807 108.229123,9.07657339 109.420009,8.29229871 L110.128195,8.29229871 C110.090614,9.52448755 110.090614,10.5706506 110.128195,11.467097 C108.899574,11.467097 107.782156,11.4297064 106.665663,11.467097" id="Fill-13"></path>
          <path d="M116.194719,17.2190009 L122.227081,17.1068292 C122.525111,12.9238764 121.258601,10.3091639 119.509392,10.3091639 C117.572431,10.3091639 116.158062,12.8117047 116.158062,16.3974901 C116.158062,16.658915 116.158062,16.9574215 116.194719,17.2190009 M116.307,18.3394815 C116.902905,22.0372841 119.285754,24.2036189 122.561922,24.2036189 C123.865088,24.2036189 125.019317,23.8672584 125.875516,23.2699365 L126.396875,24.0168206 C125.131444,26.1460738 123.083435,27.266709 120.067716,27.266709 C114.519901,27.266709 111.42902,23.4567348 111.42902,18.5262798 C111.42902,12.9611124 115.152617,9.11390215 120.067716,9.11390215 C124.460993,9.11390215 127.141872,12.1765288 126.880807,16.8454043 L125.987643,18.302091 C122.859797,18.3394815 119.546202,18.3768721 116.307,18.3394815" id="Fill-15"></path>
        </g>
      </g>
    </g>
  </g>
</svg>